<?xml version="1.0" encoding="UTF-8"?><svg id="a" xmlns="http://www.w3.org/2000/svg" width="135.95" height="102.56" viewBox="0 0 135.95 102.56"><path d="M92.99,76.36V6.24c0-4.02-2.22-6.24-6.24-6.24h-13.72c-4.02,0-6.24,2.22-6.24,6.24v33.3c0,.94,9.04,5.29,9.27,6.21,6.89,26.9,1.5,48.43-5.03,49.44,10.67.53,11.85,5.66,3.9,2.15,1.22-14.35,5.96-14.33,19.6-.53.12.12,2.8,5.74,2.96,5.74h32.22c4.02,0,6.24-2.22,6.24-6.24v-13.72c0-4.02-2.22-6.24-6.24-6.24h-36.73Z" style="fill:#02a9ff; fill-rule:evenodd;"/><path d="M36.03,0L0,102.56h28l6.1-17.74h30.49l5.96,17.74h27.86L62.5,0h-26.47ZM40.47,62.09l8.73-28.41,9.56,28.41h-18.29Z" style="fill:#fefefe; fill-rule:evenodd;"/></svg>