<?xml version="1.0" encoding="UTF-8"?><svg id="a" xmlns="http://www.w3.org/2000/svg" width="194.72" height="79.18" viewBox="0 0 194.72 79.18"><g id="b"><path id="c" d="M0,0v68.71h17.76V26.8l15.47,19.77,16.68-19.77v41.91h17.76V0h-17.76l-16.68,21.41L17.76,0H0Z" style="fill:#fff;"/><path id="d" d="M151.86,0v68.71h39.08l3.78-14.66h-25.1V0h-17.76Z" style="fill:#fff;"/><path id="e" d="M119.01,0c-21.64,0-35.07,10.21-39.37,25.39-4.2,14.82.34,34.37,10.29,53.79l14.86-10.47s-7.06-9.22-8.39-23.04h21.98v23.04h19.73V17.03h-19.73v14.97h-18.22c1.72-11.2,8.29-17.31,15.47-17.31h25.82l-5.12-14.69h-17.31Z" style="fill:#fff;"/></g></svg>